<svg xmlns="http://www.w3.org/2000/svg" viewBox="0 0 1024 1024" width="1024" height="1024" role="img" aria-label="Kibo"><title>Kibo</title><rect width="1024" height="1024" fill="#14120d"/><g transform="translate(212 212) scale(6)"><path d="M4 50A46 46 0 1 0 96 50A46 46 0 1 0 4 50ZM50 8A42 42 0 0 1 50 92Z" fill="#e0a93b" fill-rule="evenodd"/><path d="M50 8A42 42 0 0 1 50 92Z" fill="#2b2619"/><path transform="translate(29.5 46)" d="M-8 0C-8 -8.35 -5.76 -11.6 0 -11.6C5.76 -11.6 8 -8.35 8 0C8 8.35 5.76 11.6 0 11.6C-5.76 11.6 -8 8.35 -8 0Z" fill="#14120d"/><path transform="translate(70.5 46)" d="M-8 0C-8 -8.35 -5.76 -11.6 0 -11.6C5.76 -11.6 8 -8.35 8 0C8 8.35 5.76 11.6 0 11.6C-5.76 11.6 -8 8.35 -8 0Z" fill="#FBF1DA"/></g></svg>
